<svg xmlns="http://www.w3.org/2000/svg"  viewBox="0 0 33.957 46.001" width="500px" height="500px"><path d="M 17.012,0 C 6.6,-0.033 -1.029,9.438 0.113,19.788 1.285,30.411 8.75,41.674 12.206,45.656 A 1,1 0 0 0 13.957,45 V 26.154 a 1.022,1.022 0 0 0 -0.63,-0.927 8.99,8.99 0 0 1 -5.365,-8.515 9.337,9.337 0 0 1 9,-8.708 8.868,8.868 0 0 1 9,9 8.989,8.989 0 0 1 -5.37,8.226 1.025,1.025 0 0 0 -0.63,0.929 V 33 a 1.008,1.008 0 0 0 1.264,0.971 C 28.544,32.078 33.957,24.914 33.957,17 A 17,17 0 0 0 17.012,0 Z"/></svg>